<svg width="600" height="600" viewBox="0 0 600 600" fill="none" xmlns="http://www.w3.org/2000/svg">
<defs>
  <linearGradient id="skin" x1="98" y1="54" x2="498" y2="548" gradientUnits="userSpaceOnUse">
    <stop stop-color="#EED7C8"/>
    <stop offset="1" stop-color="#D7B49D"/>
  </linearGradient>
  <filter id="grain" x="-20%" y="-20%" width="140%" height="140%">
    <feTurbulence type="fractalNoise" baseFrequency="0.85" numOctaves="2" stitchTiles="stitch"/>
    <feColorMatrix type="saturate" values="0"/>
    <feComponentTransfer><feFuncA type="table" tableValues="0 0 .05 .085"/></feComponentTransfer>
  </filter>
</defs>
<rect width="600" height="600" rx="54" fill="#F7FBF8"/>
<rect x="62" y="58" width="476" height="484" rx="42" fill="url(#skin)"/>
<path d="M138 176L208 148M214 238L286 202M118 316L204 272M308 168L378 138M334 266L430 224M252 372L344 324M402 368L474 328M160 448L254 404M322 456L414 410" stroke="#F9EFE6" stroke-width="9" stroke-linecap="round" opacity=".88"/>
<path d="M132 190L170 174M230 252L264 236M346 183L385 166M371 281L408 263M196 430L238 413M416 382L451 365" stroke="#CFA78F" stroke-width="3" stroke-linecap="round" opacity=".65"/>
<rect x="62" y="58" width="476" height="484" rx="42" filter="url(#grain)"/>
</svg>
