<svg width="720" height="720" viewBox="0 0 720 720" fill="none" xmlns="http://www.w3.org/2000/svg">
<defs>
  <linearGradient id="base" x1="110" y1="80" x2="616" y2="626" gradientUnits="userSpaceOnUse">
    <stop stop-color="#E9CCB7"/>
    <stop offset=".48" stop-color="#DDB397"/>
    <stop offset="1" stop-color="#D19D82"/>
  </linearGradient>
  <filter id="noise" x="-20%" y="-20%" width="140%" height="140%">
    <feTurbulence type="fractalNoise" baseFrequency=".86" numOctaves="3" seed="22"/>
    <feColorMatrix type="saturate" values="0"/>
    <feComponentTransfer>
      <feFuncA type="table" tableValues="0 0 .05 .085"/>
    </feComponentTransfer>
  </filter>
  <filter id="blur" x="-20%" y="-20%" width="140%" height="140%">
    <feGaussianBlur stdDeviation="16"/>
  </filter>
</defs>
<rect width="720" height="720" rx="54" fill="#F8FBF7"/>
<rect x="52" y="52" width="616" height="616" rx="40" fill="url(#base)"/>
<ellipse cx="468" cy="250" rx="128" ry="98" fill="#FFF9E8" fill-opacity=".78" filter="url(#blur)"/>
<ellipse cx="302" cy="396" rx="114" ry="84" fill="#FFF5DE" fill-opacity=".62" filter="url(#blur)"/>
<g fill="#B38469" fill-opacity=".78">
  <circle cx="192" cy="224" r="10"/><circle cx="242" cy="206" r="12"/><circle cx="286" cy="238" r="9"/>
  <circle cx="342" cy="278" r="13"/><circle cx="394" cy="236" r="10"/><circle cx="440" cy="278" r="12"/>
  <circle cx="196" cy="338" r="13"/><circle cx="250" cy="374" r="10"/><circle cx="306" cy="350" r="12"/>
  <circle cx="360" cy="380" r="14"/><circle cx="414" cy="356" r="11"/><circle cx="470" cy="392" r="13"/>
  <circle cx="292" cy="456" r="10"/><circle cx="352" cy="468" r="12"/><circle cx="418" cy="444" r="9"/>
</g>
<rect x="52" y="52" width="616" height="616" rx="40" filter="url(#noise)"/>
</svg>
