<svg width="600" height="600" viewBox="0 0 600 600" fill="none" xmlns="http://www.w3.org/2000/svg">
<defs>
  <linearGradient id="skin" x1="92" y1="58" x2="508" y2="550" gradientUnits="userSpaceOnUse">
    <stop stop-color="#EBCFBC"/>
    <stop offset="1" stop-color="#DAB097"/>
  </linearGradient>
  <filter id="grain" x="-20%" y="-20%" width="140%" height="140%">
    <feTurbulence type="fractalNoise" baseFrequency="0.8" numOctaves="2" stitchTiles="stitch"/>
    <feColorMatrix type="saturate" values="0"/>
    <feComponentTransfer><feFuncA type="table" tableValues="0 0 .06 .09"/></feComponentTransfer>
  </filter>
  <filter id="blur"><feGaussianBlur stdDeviation="14"/></filter>
</defs>
<rect width="600" height="600" rx="54" fill="#F7FBF8"/>
<rect x="62" y="58" width="476" height="484" rx="42" fill="url(#skin)"/>
<ellipse cx="348" cy="242" rx="82" ry="62" fill="#FFF8EB" fill-opacity=".72" filter="url(#blur)"/>
<ellipse cx="262" cy="332" rx="72" ry="54" fill="#FFF7E4" fill-opacity=".58" filter="url(#blur)"/>
<g fill="#B9917E" fill-opacity=".72">
  <circle cx="208" cy="238" r="8"/><circle cx="246" cy="220" r="9"/><circle cx="282" cy="248" r="7"/>
  <circle cx="329" cy="284" r="10"/><circle cx="369" cy="246" r="8"/><circle cx="404" cy="285" r="9"/>
  <circle cx="210" cy="324" r="10"/><circle cx="255" cy="355" r="8"/><circle cx="301" cy="338" r="9"/>
  <circle cx="345" cy="354" r="11"/><circle cx="389" cy="336" r="9"/><circle cx="432" cy="368" r="10"/>
</g>
<rect x="62" y="58" width="476" height="484" rx="42" filter="url(#grain)"/>
</svg>
