<svg width="600" height="600" viewBox="0 0 600 600" fill="none" xmlns="http://www.w3.org/2000/svg">
<rect width="600" height="600" rx="52" fill="url(#bg)"/>
<circle cx="300" cy="286" r="144" fill="#F4DDCA"/>
<ellipse cx="300" cy="447" rx="118" ry="86" fill="#E7F0EA"/>
<circle cx="242" cy="273" r="18" fill="#263A31"/>
<circle cx="358" cy="273" r="18" fill="#263A31"/>
<path d="M248 344C274 362 326 362 352 344" stroke="#263A31" stroke-width="12" stroke-linecap="round"/>
<path d="M301 177C331 219 337 256 300 292C263 256 269 219 301 177Z" fill="#91D7F3"/>
<circle cx="396" cy="321" r="55" fill="#FDFEFE" stroke="#8ECBB3" stroke-width="8"/>
<circle cx="379" cy="307" r="7" fill="#8ECBB3"/>
<circle cx="413" cy="306" r="9" fill="#8ECBB3"/>
<circle cx="390" cy="333" r="8" fill="#8ECBB3"/>
<circle cx="420" cy="337" r="6" fill="#8ECBB3"/>
<circle cx="373" cy="341" r="5" fill="#8ECBB3"/>
<defs>
<linearGradient id="bg" x1="99" y1="49" x2="495" y2="552" gradientUnits="userSpaceOnUse">
<stop stop-color="#F8FCF8"/>
<stop offset="1" stop-color="#EAF4EE"/>
</linearGradient>
</defs>
</svg>
