<svg width="600" height="600" viewBox="0 0 600 600" fill="none" xmlns="http://www.w3.org/2000/svg">
<defs>
  <linearGradient id="skin" x1="98" y1="58" x2="506" y2="546" gradientUnits="userSpaceOnUse">
    <stop stop-color="#EDD4C1"/>
    <stop offset="1" stop-color="#D8AF96"/>
  </linearGradient>
  <filter id="grain" x="-20%" y="-20%" width="140%" height="140%">
    <feTurbulence type="fractalNoise" baseFrequency="0.9" numOctaves="3" stitchTiles="stitch"/>
    <feColorMatrix type="saturate" values="0"/>
    <feComponentTransfer><feFuncA type="table" tableValues="0 0 .06 .1"/></feComponentTransfer>
  </filter>
</defs>
<rect width="600" height="600" rx="54" fill="#F7FBF8"/>
<rect x="62" y="58" width="476" height="484" rx="42" fill="url(#skin)"/>
<g stroke="#C89E85" stroke-width="6" stroke-linecap="round" opacity=".72">
  <path d="M146 184C165 172 187 172 206 184"/>
  <path d="M248 210C266 198 288 198 306 210"/>
  <path d="M354 194C374 180 397 181 418 195"/>
  <path d="M174 290C194 278 216 278 236 290"/>
  <path d="M289 318C307 304 330 304 349 318"/>
  <path d="M396 302C416 290 438 291 458 304"/>
  <path d="M152 398C172 385 194 385 214 398"/>
  <path d="M256 430C276 417 298 418 318 430"/>
  <path d="M360 414C380 401 403 402 423 416"/>
</g>
<rect x="62" y="58" width="476" height="484" rx="42" filter="url(#grain)"/>
</svg>
