<svg width="720" height="720" viewBox="0 0 720 720" fill="none" xmlns="http://www.w3.org/2000/svg">
<defs>
  <linearGradient id="base" x1="110" y1="84" x2="612" y2="626" gradientUnits="userSpaceOnUse">
    <stop stop-color="#ECD3C0"/>
    <stop offset=".5" stop-color="#DEB69F"/>
    <stop offset="1" stop-color="#D29F84"/>
  </linearGradient>
  <filter id="noise" x="-20%" y="-20%" width="140%" height="140%">
    <feTurbulence type="fractalNoise" baseFrequency="1.1" numOctaves="3" seed="51"/>
    <feColorMatrix type="saturate" values="0"/>
    <feComponentTransfer>
      <feFuncA type="table" tableValues="0 0 .065 .11"/>
    </feComponentTransfer>
  </filter>
</defs>
<rect width="720" height="720" rx="54" fill="#F8FBF7"/>
<rect x="52" y="52" width="616" height="616" rx="40" fill="url(#base)"/>
<g stroke="#C4957A" stroke-width="7" stroke-linecap="round" opacity=".72">
  <path d="M182 196C206 176 234 176 258 196"/>
  <path d="M318 220C342 200 370 200 394 220"/>
  <path d="M454 210C480 189 508 191 534 212"/>
  <path d="M198 342C224 322 252 322 278 343"/>
  <path d="M344 368C368 346 396 346 420 368"/>
  <path d="M484 354C508 334 536 336 560 356"/>
  <path d="M190 488C214 470 242 470 266 489"/>
  <path d="M328 522C352 500 380 501 404 522"/>
  <path d="M466 510C490 490 518 491 542 512"/>
</g>
<rect x="52" y="52" width="616" height="616" rx="40" filter="url(#noise)"/>
</svg>
